PathFileType	4	(X/Y/Z)	C:\Users\Biomechanik\SynologyDrive\AlexP\Athlete_03\Athlete_3_25_03_31\Walking_01\marker_experimental.trc
DataRate	CameraRate	NumFrames	NumMarkers	Units	OrigDataRate	OrigDataStartFrame	OrigNumFrames
200.000000	200.000000	4	53	mm	200.000000	29	239
Frame#	Time	GLAB			RFHD			LFHD			C7			T6			SPINMOL			SPINM2			SPINM3			T12			BELTOL			BELT2			BELT3			SACROL			SACR2			SACR3			LTHOL			LTH2			LTH3			LSHAOL			LSHA2			LSHA3			LHEE			LTOE			LM5			RTHOL			RTH2			RTH3			RSHAOL			RSHA2			RSHA3			RHEE			RTOE			RM5			STRN			XIPH			LACR			LUAOL			LUA2			LUA3			LLAOL			LLA2			LLA3			LWRR			LWRU			RACR			RUAOL			RUA2			RUA3			RLAOL			RLA2			RLA3			RWRR			RWRU			
		X1	Y1	Z1	X2	Y2	Z2	X3	Y3	Z3	X4	Y4	Z4	X5	Y5	Z5	X6	Y6	Z6	X7	Y7	Z7	X8	Y8	Z8	X9	Y9	Z9	X10	Y10	Z10	X11	Y11	Z11	X12	Y12	Z12	X13	Y13	Z13	X14	Y14	Z14	X15	Y15	Z15	X16	Y16	Z16	X17	Y17	Z17	X18	Y18	Z18	X19	Y19	Z19	X20	Y20	Z20	X21	Y21	Z21	X22	Y22	Z22	X23	Y23	Z23	X24	Y24	Z24	X25	Y25	Z25	X26	Y26	Z26	X27	Y27	Z27	X28	Y28	Z28	X29	Y29	Z29	X30	Y30	Z30	X31	Y31	Z31	X32	Y32	Z32	X33	Y33	Z33	X34	Y34	Z34	X35	Y35	Z35	X36	Y36	Z36	X37	Y37	Z37	X38	Y38	Z38	X39	Y39	Z39	X40	Y40	Z40	X41	Y41	Z41	X42	Y42	Z42	X43	Y43	Z43	X44	Y44	Z44	X45	Y45	Z45	X46	Y46	Z46	X47	Y47	Z47	X48	Y48	Z48	X49	Y49	Z49	X50	Y50	Z50	X51	Y51	Z51	X52	Y52	Z52	X53	Y53	Z53	

30	0.145	-306.1434326171877	1580.9765625	247.2001037597656	-356.1017456054689	1603.904296875	312.7426147460937	-352.7420959472658	1602.512817382812	175.4451141357421	-528.5256347656251	1415.588989257812	239.6229705810546	-588.9389648437501	1248.807495117188	228.2135772705077	-597.5469360351564	1209.089721679688	204.8354339599608	-603.3556518554689	1200.189208984375	254.2331237792968	-593.6928100585939	1144.515380859375	218.9299011230468	-568.9388427734376	1078.070434570312	220.2256927490233	-601.3025512695314	1043.707641601562	205.2901153564452	-600.3732299804689	1040.921264648438	255.6915435791014	-606.5243530273439	981.3438720703125	226.0116577148436	-595.5986328125001	933.0071411132812	208.9148864746093	-588.0646362304689	929.9033813476562	259.647247314453	-604.705078125	871.5410766601562	232.9598846435546	-564.2310180664062	669.397705078125	35.75202178955067	-615.1456909179688	624.621337890625	78.23561859130848	-577.11181640625	611.2626953125	49.62487030029286	-709.5209350585938	374.3228149414062	36.86891174316393	-784.080078125	357.5884399414062	58.77515792846665	-745.168701171875	325.7586669921874	49.67888641357408	-896.7630004882812	236.1834869384765	149.2677764892576	-818.1004028320312	45.83781051635737	152.4805603027342	-854.8099975585938	60.58449172973628	53.11431503295883	-420.0189819335939	658.755615234375	411.3963012695312	-345.756072998047	631.132568359375	418.1334838867187	-387.822235107422	607.9295654296875	403.1699218749999	-325.5174865722657	327.9896850585938	406.4396667480468	-279.0905456542969	264.9069519042969	401.8318481445312	-327.6260986328126	267.56494140625	393.0744018554687	-326.8652648925782	53.34479522705076	287.7605285644531	-115.2113952636719	56.66745376586913	290.4403686523438	-162.4432220458985	36.37420654296874	391.6151733398437	-357.879364013672	1312.11328125	239.7523651123046	-341.3926391601564	1169.161010742188	232.8213500976562	-447.1661376953126	1382.889404296875	66.80596160888663	-432.7866516113282	1237.07958984375	-40.33503723144539	-436.2640991210938	1175.669311523438	-63.83959579467781	-392.8917236328126	1184.9755859375	-39.57196044921882	-339.4941101074219	991.16552734375	-95.25981903076178	-343.3096313476563	913.5914306640625	-80.28799438476568	-303.2738342285157	941.9177856445312	-91.14348602294928	-234.3253021240235	864.03955078125	-84.45368194580082	-205.1872253417969	891.2235717773438	-16.30360031127934	-447.8037109375001	1359.065185546875	409.3277893066406	-486.0340270996095	1208.26708984375	499.6389770507811	-470.7139282226564	1144.66552734375	508.3234252929686	-520.8658447265627	1154.220581054688	515.6409301757811	-515.806091308594	934.2332153320312	546.2540283203124	-473.3368225097658	877.4833374023438	581.8989257812499	-511.6920776367189	871.2966918945312	551.2253417968749	-486.4539489746095	786.9158935546875	571.8040161132811	-440.4649658203127	767.2568359375	507.3229064941406	
31	0.15	-299.0921325683595	1581.897216796875	248.3991394042968	-349.0152893066408	1604.811279296875	313.9551696777343	-345.6921691894533	1603.418212890625	176.6579132080078	-521.4892578125001	1416.421020507812	240.8542480468749	-581.8051147460939	1249.5908203125	229.2397613525389	-590.3786621093751	1209.892333984375	205.8143920898436	-596.1677856445314	1200.957153320312	255.2107543945311	-586.5088500976564	1145.3076171875	219.8651275634764	-561.8114624023439	1078.904418945312	221.1839141845702	-594.0547485351564	1044.701171875	205.7280120849608	-593.3096313476564	1042.008422851562	256.1431884765624	-599.3593139648439	982.3756103515625	226.5496520996093	-588.2485351562501	933.2966918945312	209.5388336181639	-580.8853149414064	930.5145874023438	260.3247070312499	-597.12158203125	871.9049682617188	233.8784942626952	-554.1076049804688	668.3895263671875	36.26836395263662	-604.1583251953125	622.66162109375	78.77272796630848	-566.2862548828125	610.053466796875	49.64023208618153	-697.9641723632812	375.8827209472656	36.08975601196276	-772.5746459960938	360.2709045410156	58.74298858642564	-734.2828369140625	327.8654785156249	49.1043548583983	-885.4150390625	242.031265258789	149.5290527343748	-814.2730712890625	47.83224868774409	152.3284759521483	-851.5056762695312	64.74533081054682	53.72991943359359	-412.7284240722657	659.8070068359375	412.8369445800781	-338.642059326172	631.8932495117188	418.8244018554687	-380.8139953613282	608.8515014648438	404.4227294921874	-321.0706481933594	328.4680786132812	407.0792236328124	-275.3257751464844	264.86083984375	401.8054199218749	-324.0184936523438	268.0482482910156	393.6215209960937	-326.4976501464844	53.79715347290037	287.5739135742187	-114.3539123535157	55.15312194824218	290.0670776367188	-162.3095245361329	36.3655776977539	391.4627990722656	-350.7897949218751	1313.149536132812	240.928237915039	-334.3341369628907	1170.11767578125	234.0142059326171	-439.9772644042969	1383.952270507812	68.0670852661132	-425.8074340820313	1238.094604492188	-39.02541351318367	-429.5090942382813	1176.74560546875	-62.70600891113289	-386.1852111816407	1185.696044921875	-38.13373184204109	-334.7084655761719	991.3128051757812	-94.14965057373053	-339.3840026855469	913.7879638671875	-79.28939819335943	-299.0690612792969	941.607177734375	-90.33655548095709	-231.0458068847657	862.8665161132812	-84.24024963378911	-201.2202758789063	889.419677734375	-16.16765213012699	-440.5122985839845	1359.99365234375	410.4598083496093	-477.894989013672	1208.948486328125	500.8339233398436	-462.2079162597658	1145.361450195312	509.1578979492187	-512.3347167968752	1154.708251953125	516.9407348632811	-506.3601379394533	934.6809692382812	546.9378051757811	-463.4114074707033	878.0497436523438	582.2353515624999	-501.9231567382814	871.7568969726562	551.7671508789061	-476.1428833007814	787.4393920898438	572.0222167968749	-430.4417724609377	768.1571044921875	507.2593078613281	
32	0.155	-292.0672302246095	1582.82763671875	249.5614471435546	-341.9623107910158	1605.728515625	315.1286010742187	-338.6607055664064	1604.344970703125	177.8299560546874	-514.4946899414064	1417.284301757812	242.0192108154296	-574.7177124023439	1250.40380859375	230.2616271972655	-583.2615966796876	1210.715209960938	206.8067169189452	-589.0203247070314	1201.761840820312	256.2051696777343	-579.3699340820314	1146.125244140625	220.8342132568358	-554.7209472656251	1079.757080078125	222.1964111328124	-586.8828735351564	1045.682739257812	206.2324676513671	-586.3018798828126	1043.077392578125	256.6596069335936	-592.2570190429689	983.3922729492188	227.1480255126952	-580.9536132812501	933.6344604492188	210.2550048828124	-573.7365112304689	931.1608276367188	261.087677001953	-589.6422119140625	872.3275146484375	234.8890686035155	-543.8882446289062	667.4042358398438	36.72920227050771	-593.0650024414062	620.7100830078125	79.21121215820301	-555.341552734375	608.871337890625	49.59280776977529	-686.0899047851562	377.4583129882812	35.28938293457018	-760.7359619140625	362.9681091308593	58.65782546997056	-723.0708618164062	329.9968566894531	48.5101280212401	-873.7079467773438	247.8425140380859	149.817413330078	-809.936767578125	50.0187263488769	152.0888366699217	-847.7498779296875	69.19666290283197	54.35592651367172	-405.5722656250001	660.7752685546875	414.2175598144531	-331.715545654297	632.4642944335938	419.4455566406249	-373.9893493652345	609.6582641601562	405.5886230468749	-316.9381713867188	328.8516845703125	407.5423278808593	-271.8484497070313	264.7418823242188	401.7476806640624	-320.6611022949219	268.4507751464844	393.9818115234374	-326.1484375000001	54.21422958374021	287.3424682617187	-113.5591049194337	53.78190231323241	289.7299499511719	-162.1960449218751	36.42604827880859	391.2995300292968	-343.7434387207032	1314.199340820312	242.0425109863281	-327.3331909179689	1171.0869140625	235.1481933593749	-432.8493041992188	1385.024536132812	69.27178955078116	-418.9042663574219	1239.109497070312	-37.76742172241219	-422.8276367187501	1177.819580078125	-61.61450576782234	-379.5610961914063	1186.423217773438	-36.74553298950202	-329.9889831542969	991.4736328125	-93.05134582519537	-335.5301513671876	914.0104370117188	-78.28876495361334	-294.9427795410157	941.3124389648438	-89.53961181640631	-227.8708038330078	861.7145385742188	-84.03307342529301	-197.3511352539063	887.6299438476562	-16.05220794677738	-433.261688232422	1360.97314453125	411.5320739746093	-469.7678833007814	1209.699951171875	502.0141296386718	-453.7009582519533	1146.135009765625	509.9768981933593	-503.7927551269533	1155.257202148438	518.2341918945311	-496.8488159179689	935.197998046875	547.6454467773436	-453.3860778808595	878.7081909179688	582.5761718749999	-492.0674743652345	872.2932739257812	552.3331909179686	-465.7015991210939	788.0552978515625	572.2531738281249	-420.3054504394533	769.1517944335938	507.1921081542968	
33	0.16	-285.0690002441408	1583.765258789062	250.6856079101562	-334.942596435547	1606.653686523438	316.2612609863281	-331.648406982422	1605.290283203125	178.9597015380859	-507.5380859375002	1418.176513671875	243.1203613281249	-567.6771240234376	1251.244995117188	231.2823028564452	-576.1961059570314	1211.557006835938	207.8155975341796	-581.9141845703126	1202.601684570312	257.219512939453	-572.2772216796876	1146.966674804688	221.8400115966796	-547.6673583984376	1080.626586914062	223.2627716064452	-579.7825317382814	1046.640502929688	206.8146820068358	-579.3430786132814	1044.115112304688	257.2519531249999	-585.2104492187501	984.3811645507812	227.8165588378905	-573.7136840820314	934.0167846679688	211.0712585449218	-566.6156005859376	931.8381958007812	261.943634033203	-582.2645263671875	872.80419921875	235.9990997314452	-533.5881958007812	666.4655151367188	37.1355094909667	-581.8851928710938	618.7989501953125	79.55482482910145	-544.2937622070312	607.741455078125	49.49367523193349	-673.9213256835938	379.0495910644531	34.47729492187488	-748.5880126953125	365.6731262207031	58.52823638916002	-711.5518798828125	332.1486206054687	47.90288925170886	-861.677978515625	253.5845336914062	150.1386718749998	-805.062744140625	52.3832511901855	151.7603149414061	-843.4910278320312	73.89931488037104	54.97982406616195	-398.5840148925782	661.6597900390625	415.5122985839843	-325.0108032226564	632.8478393554688	419.9903259277343	-367.3809814453126	610.3521728515625	406.6506347656249	-313.1073303222657	329.1490783691406	407.8483886718749	-268.6435241699219	264.5630493164062	401.6555480957031	-317.5427551269532	268.7792663574219	394.1780395507812	-325.8138122558594	54.59955215454099	287.0719604492187	-112.8202362060547	52.54579162597656	289.4310302734375	-162.0945739746095	36.53578948974609	391.1271972656249	-336.7403869628907	1315.258422851562	243.0933685302734	-320.3861694335939	1172.065795898438	236.2227783203124	-425.7854919433594	1386.097045898438	70.41671752929679	-412.0809020996094	1240.113525390625	-36.56240081787117	-416.2287597656251	1178.880737304688	-60.56107711792	-373.0205993652344	1187.148315429688	-35.41093826293952	-325.3311767578126	991.64111328125	-91.96924591064459	-331.7398986816407	914.2516479492188	-77.2887802124024	-290.8880004882813	941.0288696289062	-88.75583648681646	-224.7882537841797	860.5839233398438	-83.83323669433598	-193.5738677978516	885.8538208007812	-15.95518398284916	-426.0491638183595	1361.995727539062	412.5460815429687	-461.6535034179689	1210.513549804688	503.1780395507812	-445.1961975097658	1146.97900390625	510.7819519042968	-495.2432250976564	1155.861694335938	519.5190429687499	-487.2747192382814	935.7763671875	548.3785400390624	-443.2632446289064	879.4501953125	582.9205322265624	-482.1277160644533	872.8981323242188	552.9231567382811	-455.1339416503908	788.756591796875	572.4944458007811	-410.0576477050783	770.2335815429688	507.1189270019531	
